<?xml version="1.0" encoding="UTF-8"?>
<!DOCTYPE svg PUBLIC "-//W3C//DTD SVG 1.1//EN" "http://www.w3.org/Graphics/SVG/1.1/DTD/svg11.dtd">
<svg xmlns="http://www.w3.org/2000/svg" version="1.1" width="512px" height="512px" style="shape-rendering:geometricPrecision; text-rendering:geometricPrecision; image-rendering:optimizeQuality; fill-rule:evenodd; clip-rule:evenodd" xmlns:xlink="http://www.w3.org/1999/xlink">
<g><path style="opacity:0.939" fill="#5e6175" d="M 388.5,62.5 C 395.665,67.2001 398.165,73.8668 396,82.5C 395.529,84.2464 394.862,85.913 394,87.5C 387.5,94 381,100.5 374.5,107C 365.713,112.077 357.546,111.244 350,104.5C 349.333,103.5 349.333,102.5 350,101.5C 354.199,96.9657 358.699,92.799 363.5,89C 366.726,87.8011 370.059,87.3011 373.5,87.5C 373.573,82.8729 374.74,78.5396 377,74.5C 381.037,70.631 384.87,66.631 388.5,62.5 Z"/></g>
<g><path style="opacity:0.938" fill="#5e6175" d="M 278.5,70.5 C 284.842,70.3338 291.175,70.5005 297.5,71C 301.468,71.9643 304.635,74.1309 307,77.5C 309.215,74.6294 312.049,72.4627 315.5,71C 322.158,70.5004 328.825,70.3337 335.5,70.5C 336.132,81.097 331.466,87.9304 321.5,91C 311.5,91.6667 301.5,91.6667 291.5,91C 281.741,87.6561 277.408,80.8227 278.5,70.5 Z"/></g>
<g><path style="opacity:1" fill="#d8dbe1" d="M 387.5,72.5 C 388.496,72.4142 389.329,72.7476 390,73.5C 390.881,80.7416 388.215,86.4083 382,90.5C 380.517,87.2976 380.183,83.9643 381,80.5C 383.001,77.6693 385.167,75.0026 387.5,72.5 Z"/></g>
<g><path style="opacity:1" fill="#c3c8d6" d="M 285.5,76.5 C 291.932,75.347 297.432,77.0137 302,81.5C 302.483,82.448 302.649,83.448 302.5,84.5C 295.984,85.763 290.484,84.0964 286,79.5C 285.517,78.552 285.351,77.552 285.5,76.5 Z"/></g>
<g><path style="opacity:1" fill="#bec3d1" d="M 318.5,76.5 C 321.898,76.1796 325.232,76.513 328.5,77.5C 326.867,81.6329 323.867,84.1329 319.5,85C 316.518,85.498 313.518,85.6646 310.5,85.5C 311.765,81.2356 314.432,78.2356 318.5,76.5 Z"/></g>
<g><path style="opacity:1" fill="#d0d4de" d="M 368.5,93.5 C 377.633,93.1019 378.633,95.6019 371.5,101C 367.265,103.742 362.931,104.075 358.5,102C 361.438,98.5513 364.771,95.718 368.5,93.5 Z"/></g>
<g><path style="opacity:0.862" fill="#adb2c5" d="M 302.5,100.5 C 305.271,100.421 307.937,100.921 310.5,102C 309.563,104.707 308.23,107.207 306.5,109.5C 304.663,108.162 302.997,106.662 301.5,105C 302.148,103.56 302.481,102.06 302.5,100.5 Z"/></g>
<g><path style="opacity:0.928" fill="#a9aec4" d="M 397.5,99.5 C 399.833,99.5 402.167,99.5 404.5,99.5C 404.5,101.833 404.5,104.167 404.5,106.5C 402.167,106.5 399.833,106.5 397.5,106.5C 397.5,104.167 397.5,101.833 397.5,99.5 Z"/></g>
<g><path style="opacity:0.933" fill="#a9aec4" d="M 413.5,99.5 C 420.67,98.5899 422.67,101.09 419.5,107C 417.575,106.865 415.575,106.698 413.5,106.5C 413.5,104.167 413.5,101.833 413.5,99.5 Z"/></g>
<g><path style="opacity:0.976" fill="#5d6175" d="M 129.5,102.5 C 131.833,102.5 134.167,102.5 136.5,102.5C 136.5,108.833 136.5,115.167 136.5,121.5C 134.167,121.5 131.833,121.5 129.5,121.5C 129.5,115.167 129.5,108.833 129.5,102.5 Z"/></g>
<g><path style="opacity:0.88" fill="#a8aec5" d="M 429.5,106.5 C 432.068,107.574 433.735,109.574 434.5,112.5C 430.915,116.603 427.915,116.27 425.5,111.5C 426.857,109.814 428.19,108.148 429.5,106.5 Z"/></g>
<g><path style="opacity:0.904" fill="#aab0c5" d="M 289.5,108.5 C 295.5,107.167 297.833,109.5 296.5,115.5C 294.167,115.5 291.833,115.5 289.5,115.5C 289.5,113.167 289.5,110.833 289.5,108.5 Z"/></g>
<g><path style="opacity:0.92" fill="#a8aec3" d="M 228.5,108.5 C 229.833,108.5 231.167,108.5 232.5,108.5C 232.5,110.833 232.5,113.167 232.5,115.5C 226.784,117.797 224.117,115.797 224.5,109.5C 226.099,109.768 227.432,109.434 228.5,108.5 Z"/></g>
<g><path style="opacity:1" fill="#a9aec3" d="M 241.5,108.5 C 243.833,108.5 246.167,108.5 248.5,108.5C 248.5,110.833 248.5,113.167 248.5,115.5C 246.167,115.5 243.833,115.5 241.5,115.5C 241.5,113.167 241.5,110.833 241.5,108.5 Z"/></g>
<g><path style="opacity:1" fill="#a9aec3" d="M 257.5,108.5 C 259.833,108.5 262.167,108.5 264.5,108.5C 264.5,110.833 264.5,113.167 264.5,115.5C 262.167,115.5 259.833,115.5 257.5,115.5C 257.5,113.167 257.5,110.833 257.5,108.5 Z"/></g>
<g><path style="opacity:1" fill="#a9aec3" d="M 273.5,108.5 C 275.833,108.5 278.167,108.5 280.5,108.5C 280.5,110.833 280.5,113.167 280.5,115.5C 278.167,115.5 275.833,115.5 273.5,115.5C 273.5,113.167 273.5,110.833 273.5,108.5 Z"/></g>
<g><path style="opacity:0.899" fill="#5f6175" d="M 157.5,115.5 C 160.787,116.273 162.287,118.273 162,121.5C 157.985,125.682 153.818,129.682 149.5,133.5C 147.684,132.185 146.017,130.685 144.5,129C 149.037,124.631 153.37,120.131 157.5,115.5 Z"/></g>
<g><path style="opacity:0.935" fill="#aab0c4" d="M 214.5,117.5 C 217.14,117.954 219.473,119.121 221.5,121C 219.868,125.099 217.035,126.266 213,124.5C 212.865,122.078 213.365,119.745 214.5,117.5 Z"/></g>
<g><path style="opacity:0.871" fill="#a9aec3" d="M 428.5,123.5 C 430.833,123.5 433.167,123.5 435.5,123.5C 435.5,125.833 435.5,128.167 435.5,130.5C 433.167,130.5 430.833,130.5 428.5,130.5C 428.5,128.167 428.5,125.833 428.5,123.5 Z"/></g>
<g><path style="opacity:0.924" fill="#a8aec3" d="M 216.5,133.5 C 223.677,135.218 224.177,138.218 218,142.5C 215.923,140.924 214.423,138.924 213.5,136.5C 214.34,135.265 215.34,134.265 216.5,133.5 Z"/></g>
<g><path style="opacity:0.871" fill="#a9aec3" d="M 428.5,139.5 C 430.833,139.5 433.167,139.5 435.5,139.5C 435.5,141.833 435.5,144.167 435.5,146.5C 433.167,146.5 430.833,146.5 428.5,146.5C 428.5,144.167 428.5,141.833 428.5,139.5 Z"/></g>
<g><path style="opacity:0.969" fill="#5f6276" d="M 38.5,141.5 C 71.1684,141.333 103.835,141.5 136.5,142C 147.734,155.907 159.734,169.24 172.5,182C 254.16,190.966 335.827,199.799 417.5,208.5C 415.094,229.469 413.26,250.469 412,271.5C 447.106,270.58 469.106,287.247 478,321.5C 481.572,356.904 466.739,380.737 433.5,393C 402.912,399.425 379.245,389.591 362.5,363.5C 309.171,362.5 255.837,362.167 202.5,362.5C 202.5,376.5 202.5,390.5 202.5,404.5C 212.833,406.167 218.833,412.167 220.5,422.5C 244.5,422.5 268.5,422.5 292.5,422.5C 295.785,408.175 304.785,402.342 319.5,405C 328.294,407.624 333.294,413.458 334.5,422.5C 340.833,422.5 347.167,422.5 353.5,422.5C 356.785,408.175 365.785,402.342 380.5,405C 396.038,411.964 399.872,423.131 392,438.5C 388.005,443.5 382.838,446.334 376.5,447C 265.834,447.5 155.167,447.667 44.5,447.5C 44.5,445.167 44.5,442.833 44.5,440.5C 69.8355,440.667 95.1689,440.5 120.5,440C 112.185,428.544 113.185,417.877 123.5,408C 127.187,405.715 131.187,404.548 135.5,404.5C 135.667,388.497 135.5,372.497 135,356.5C 119.822,300.123 104.489,243.789 89,187.5C 81.531,179.03 73.6977,170.863 65.5,163C 56.8333,162.667 48.1667,162.333 39.5,162C 33.4387,159.037 31.2721,154.203 33,147.5C 34.3597,144.977 36.193,142.977 38.5,141.5 Z M 139.5,158.5 C 147.037,166.354 154.703,174.188 162.5,182C 139.833,182.667 117.167,182.667 94.5,182C 88.1667,175.667 81.8333,169.333 75.5,163C 95.5,162.667 115.5,162.333 135.5,162C 137.324,161.34 138.657,160.173 139.5,158.5 Z M 142.5,362.5 C 160.167,362.5 177.833,362.5 195.5,362.5C 195.833,376.516 195.499,390.516 194.5,404.5C 185.216,407.111 179.883,413.111 178.5,422.5C 171.5,422.5 164.5,422.5 157.5,422.5C 156.354,413.358 151.354,407.691 142.5,405.5C 142.5,391.167 142.5,376.833 142.5,362.5 Z M 157.5,429.5 C 164.5,429.5 171.5,429.5 178.5,429.5C 178.73,433.694 180.397,437.194 183.5,440C 173.167,440.667 162.833,440.667 152.5,440C 155.115,436.938 156.781,433.438 157.5,429.5 Z M 220.5,429.5 C 244.5,429.5 268.5,429.5 292.5,429.5C 293.219,433.438 294.885,436.938 297.5,440C 270.167,440.667 242.833,440.667 215.5,440C 218.109,436.949 219.775,433.449 220.5,429.5 Z M 334.5,429.5 C 340.833,429.5 347.167,429.5 353.5,429.5C 354.219,433.438 355.885,436.938 358.5,440C 348.833,440.667 339.167,440.667 329.5,440C 332.115,436.938 333.781,433.438 334.5,429.5 Z"/></g>
<g><path style="opacity:0.937" fill="#5e6075" d="M 156.5,141.5 C 162.833,141.5 169.167,141.5 175.5,141.5C 175.5,143.833 175.5,146.167 175.5,148.5C 169.167,148.5 162.833,148.5 156.5,148.5C 156.5,146.167 156.5,143.833 156.5,141.5 Z"/></g>
<g><path style="opacity:0.927" fill="#a8aec4" d="M 228.5,140.5 C 230.806,140.993 233.139,141.326 235.5,141.5C 235.5,143.833 235.5,146.167 235.5,148.5C 232.794,148.425 230.127,148.092 227.5,147.5C 227.993,145.194 228.326,142.861 228.5,140.5 Z"/></g>
<g><path style="opacity:0.972" fill="#a8aec4" d="M 244.5,141.5 C 246.833,141.5 249.167,141.5 251.5,141.5C 251.5,143.833 251.5,146.167 251.5,148.5C 249.167,148.5 246.833,148.5 244.5,148.5C 244.5,146.167 244.5,143.833 244.5,141.5 Z"/></g>
<g><path style="opacity:0.867" fill="#acb1c4" d="M 261.5,143.5 C 263.812,145.146 265.812,147.146 267.5,149.5C 265.772,151.226 263.772,152.559 261.5,153.5C 260.352,151.851 259.019,150.351 257.5,149C 258.965,147.226 260.298,145.392 261.5,143.5 Z"/></g>
<g><path style="opacity:0.871" fill="#a8afc3" d="M 340.5,148.5 C 342.833,148.5 345.167,148.5 347.5,148.5C 347.5,150.833 347.5,153.167 347.5,155.5C 345.167,155.5 342.833,155.5 340.5,155.5C 340.5,153.167 340.5,150.833 340.5,148.5 Z"/></g>
<g><path style="opacity:0.871" fill="#a8afc3" d="M 356.5,148.5 C 358.833,148.5 361.167,148.5 363.5,148.5C 363.5,150.833 363.5,153.167 363.5,155.5C 361.167,155.5 358.833,155.5 356.5,155.5C 356.5,153.167 356.5,150.833 356.5,148.5 Z"/></g>
<g><path style="opacity:0.871" fill="#a8afc3" d="M 372.5,148.5 C 374.833,148.5 377.167,148.5 379.5,148.5C 379.5,150.833 379.5,153.167 379.5,155.5C 377.167,155.5 374.833,155.5 372.5,155.5C 372.5,153.167 372.5,150.833 372.5,148.5 Z"/></g>
<g><path style="opacity:0.894" fill="#a9b0c4" d="M 327.5,149.5 C 328.822,149.33 329.989,149.663 331,150.5C 331.813,152.436 332.313,154.436 332.5,156.5C 330.61,156.297 329.11,156.963 328,158.5C 325.705,156.92 324.372,154.92 324,152.5C 325.145,151.364 326.312,150.364 327.5,149.5 Z"/></g>
<g><path style="opacity:0.865" fill="#acb0c7" d="M 389.5,148.5 C 392.245,149.084 394.578,150.418 396.5,152.5C 394.458,158.188 391.458,158.855 387.5,154.5C 388.172,152.47 388.838,150.47 389.5,148.5 Z"/></g>
<g><path style="opacity:0.873" fill="#a9aec4" d="M 428.5,155.5 C 430.833,155.5 433.167,155.5 435.5,155.5C 435.5,157.833 435.5,160.167 435.5,162.5C 433.167,162.5 430.833,162.5 428.5,162.5C 428.5,160.167 428.5,157.833 428.5,155.5 Z"/></g>
<g><path style="opacity:0.911" fill="#acb2c6" d="M 262.5,159.5 C 264.764,160.219 267.097,160.552 269.5,160.5C 268.96,168.796 265.96,170.13 260.5,164.5C 261.456,162.925 262.123,161.258 262.5,159.5 Z"/></g>
<g><path style="opacity:0.929" fill="#a9afc3" d="M 401.5,161.5 C 403.693,163.522 404.693,166.189 404.5,169.5C 402.167,169.5 399.833,169.5 397.5,169.5C 396.986,167.488 396.82,165.488 397,163.5C 398.622,162.901 400.122,162.234 401.5,161.5 Z"/></g>
<g><path style="opacity:0.87" fill="#a8afc3" d="M 316.5,162.5 C 318.861,162.674 321.194,163.007 323.5,163.5C 323.5,165.833 323.5,168.167 323.5,170.5C 321.167,170.5 318.833,170.5 316.5,170.5C 316.5,167.833 316.5,165.167 316.5,162.5 Z"/></g>
<g><path style="opacity:0.836" fill="#a9afc3" d="M 233.5,168.5 C 235.833,168.5 238.167,168.5 240.5,168.5C 240.5,170.833 240.5,173.167 240.5,175.5C 238.167,175.5 235.833,175.5 233.5,175.5C 233.5,173.167 233.5,170.833 233.5,168.5 Z"/></g>
<g><path style="opacity:0.9" fill="#a9b0c4" d="M 249.5,168.5 C 255.167,167.502 257.501,169.836 256.5,175.5C 254.167,175.5 251.833,175.5 249.5,175.5C 249.5,173.167 249.5,170.833 249.5,168.5 Z"/></g>
<g><path style="opacity:0.881" fill="#a8adc4" d="M 428.5,171.5 C 436.474,171.117 437.641,173.784 432,179.5C 426.624,178.361 425.457,175.695 428.5,171.5 Z"/></g>
<g><path style="opacity:0.879" fill="#a9aec4" d="M 404.5,176.5 C 410.783,178.755 411.117,181.755 405.5,185.5C 399.602,182.612 399.269,179.612 404.5,176.5 Z"/></g>
<g><path style="opacity:0.897" fill="#a8afc3" d="M 316.5,179.5 C 318.833,179.5 321.167,179.5 323.5,179.5C 323.5,181.833 323.5,184.167 323.5,186.5C 321.167,186.5 318.833,186.5 316.5,186.5C 316.5,184.167 316.5,181.833 316.5,179.5 Z"/></g>
<g><path style="opacity:0.877" fill="#a8aec5" d="M 416.5,181.5 C 418.5,181.5 420.5,181.5 422.5,181.5C 422.472,183.582 423.139,185.416 424.5,187C 422.02,187.96 419.52,188.793 417,189.5C 416.503,186.854 416.336,184.187 416.5,181.5 Z"/></g>
<g><path style="opacity:1" fill="#f4f4f4" d="M 96.5,188.5 C 120.5,188.5 144.5,188.5 168.5,188.5C 177.067,244.566 186.067,300.566 195.5,356.5C 177.5,356.5 159.5,356.5 141.5,356.5C 126.812,300.414 111.812,244.414 96.5,188.5 Z"/></g>
<g><path style="opacity:1" fill="#f4f4f4" d="M 405.5,259.5 C 396.816,260.394 388.816,263.061 381.5,267.5C 380.504,267.414 379.671,267.748 379,268.5C 378.51,267.207 378.343,265.873 378.5,264.5C 378.928,258.824 379.095,253.157 379,247.5C 374.313,240.071 368.313,238.737 361,243.5C 359.906,245.078 359.072,246.745 358.5,248.5C 357.669,261.66 357.169,274.994 357,288.5C 342.075,309.2 338.242,331.867 345.5,356.5C 297.5,356.5 249.5,356.5 201.5,356.5C 193.149,301.06 184.149,245.726 174.5,190.5C 176.167,190.167 177.833,189.833 179.5,189.5C 256.222,197.439 332.889,205.772 409.5,214.5C 408.875,229.708 407.541,244.708 405.5,259.5 Z"/></g>
<g><path style="opacity:1" fill="#a9afc4" d="M 229.5,227.5 C 236.265,226.469 241.432,228.802 245,234.5C 245.667,264.833 245.667,295.167 245,325.5C 242.369,329.629 238.869,330.462 234.5,328C 232.996,326.509 232.163,324.676 232,322.5C 228.82,295.116 225.32,267.783 221.5,240.5C 221.697,234.638 224.364,230.305 229.5,227.5 Z"/></g>
<g><path style="opacity:1" fill="#aab0c4" d="M 300.5,234.5 C 311.03,234.032 316.364,239.032 316.5,249.5C 314.243,274.826 312.076,300.159 310,325.5C 307.005,330.698 303.005,331.698 298,328.5C 296.956,326.285 296.29,323.952 296,321.5C 294.781,297.502 293.614,273.502 292.5,249.5C 292.435,246.375 292.935,243.375 294,240.5C 296.063,238.266 298.229,236.266 300.5,234.5 Z"/></g>
<g><path style="opacity:1" fill="#aaafc4" d="M 378.5,264.5 C 377.698,265.952 377.198,267.618 377,269.5C 370.405,274.091 364.405,279.424 359,285.5C 358.5,273.171 358.333,260.838 358.5,248.5C 359.072,246.745 359.906,245.078 361,243.5C 368.313,238.737 374.313,240.071 379,247.5C 379.095,253.157 378.928,258.824 378.5,264.5 Z"/></g>
<g><path style="opacity:1" fill="#e3e6ea" d="M 405.5,259.5 C 405.5,263.833 405.5,268.167 405.5,272.5C 398.429,273.703 391.762,276.037 385.5,279.5C 384.167,275.5 382.833,271.5 381.5,267.5C 388.816,263.061 396.816,260.394 405.5,259.5 Z"/></g>
<g><path style="opacity:1" fill="#f2f3f3" d="M 406.5,277.5 C 440.953,275.149 462.786,290.482 472,323.5C 474.702,348.09 465.869,367.256 445.5,381C 415.556,395.388 390.389,389.555 370,363.5C 353.935,332.94 359.435,307.106 386.5,286C 392.92,282.282 399.586,279.449 406.5,277.5 Z"/></g>
<g><path style="opacity:1" fill="#d1d5e0" d="M 358.5,248.5 C 358.333,260.838 358.5,273.171 359,285.5C 364.405,279.424 370.405,274.091 377,269.5C 377.198,267.618 377.698,265.952 378.5,264.5C 378.343,265.873 378.51,267.207 379,268.5C 379.671,267.748 380.504,267.414 381.5,267.5C 382.833,271.5 384.167,275.5 385.5,279.5C 358.143,298.254 349.477,323.587 359.5,355.5C 354.88,356.493 350.214,356.827 345.5,356.5C 338.242,331.867 342.075,309.2 357,288.5C 357.169,274.994 357.669,261.66 358.5,248.5 Z"/></g>
<g><path style="opacity:1" fill="#023e2a" d="M 400.5,301.5 C 405.813,306.478 411.146,311.478 416.5,316.5C 421.819,311.682 426.985,306.682 432,301.5C 437,306.5 442,311.5 447,316.5C 443.21,322.472 438.377,327.806 432.5,332.5C 437.318,337.819 442.318,342.985 447.5,348C 442.333,353.167 437.167,358.333 432,363.5C 426.985,358.318 421.819,353.318 416.5,348.5C 411.833,353.833 406.833,358.833 401.5,363.5C 396.015,358.515 390.681,353.348 385.5,348C 390.682,342.985 395.682,337.819 400.5,332.5C 395.682,327.181 390.682,322.015 385.5,317C 390.703,311.965 395.703,306.798 400.5,301.5 Z"/></g>
<g><path style="opacity:0.917" fill="#5d6074" d="M 105.5,334.5 C 114.884,336.266 117.718,341.599 114,350.5C 108.375,355.935 103.042,355.602 98,349.5C 95.1914,341.784 97.6914,336.784 105.5,334.5 Z M 105.5,341.5 C 109.184,343.203 109.351,345.203 106,347.5C 102.898,345.663 102.731,343.663 105.5,341.5 Z"/></g>
<g><path style="opacity:0.907" fill="#5d6074" d="M 71.5,375.5 C 85.5974,376.365 90.0974,383.365 85,396.5C 79.4901,402.043 73.3234,402.876 66.5,399C 60.908,393.521 60.0747,387.355 64,380.5C 66.1699,378.177 68.6699,376.51 71.5,375.5 Z M 72.5,382.5 C 78.3296,382.161 80.8296,384.827 80,390.5C 76.3333,395.833 72.6667,395.833 69,390.5C 68.3333,389.167 68.3333,387.833 69,386.5C 70.3756,385.295 71.5423,383.962 72.5,382.5 Z"/></g>
<g><path style="opacity:1" fill="#e9eaeb" d="M 133.5,419.5 C 134.5,419.5 135.5,419.5 136.5,419.5C 136.5,422.5 136.5,425.5 136.5,428.5C 142.892,429.111 142.892,430.445 136.5,432.5C 130.909,431.349 129.075,428.016 131,422.5C 131.698,421.309 132.531,420.309 133.5,419.5 Z"/></g>
<g><path style="opacity:1" fill="#ededee" d="M 195.5,419.5 C 202.827,418.329 205.994,421.329 205,428.5C 200.626,433.915 196.626,433.582 193,427.5C 192.388,424.389 193.221,421.723 195.5,419.5 Z"/></g>
<g><path style="opacity:1" fill="#efeff0" d="M 310.5,419.5 C 313.665,418.964 316.331,419.797 318.5,422C 315.118,422.824 311.784,422.657 308.5,421.5C 309.243,420.818 309.909,420.151 310.5,419.5 Z"/></g>
<g><path style="opacity:1" fill="#eeeeef" d="M 371.5,419.5 C 380.351,419.368 382.684,423.202 378.5,431C 370.685,433.522 367.518,430.689 369,422.5C 370.045,421.627 370.878,420.627 371.5,419.5 Z"/></g>
<g><path style="opacity:1" fill="#dfdfe2" d="M 307.5,429.5 C 311.019,428.192 314.685,428.192 318.5,429.5C 314.926,433.372 311.259,433.372 307.5,429.5 Z"/></g>
</svg>
